# xmcd CD database file
#
# Track frame offsets:
#	183
#	17900
#	35025
#	51750
#	72235
#	83905
#	103435
#	122025
#	137995
#	155730
#
# Disc length: 2341 seconds
#
# Revision: 2
# Processed by: cddbd v1.5.2PL0 Copyright (c) Steve Scherf et al.
# Submitted via: CDex 1.51
#
DISCID=9409230a
DTITLE=Smokey Robinson - Double Good Everything
DYEAR=1991
DGENRE=Pop
TTITLE0=Why
TTITLE1=Double Good Everythingq
TTITLE2=Rewind
TTITLE3=Be Who You Are
TTITLE4=I Love Your Face
TTITLE5=I Can't Get Enough
TTITLE6=Rack Me Back
TTITLE7=When A Woman Cries
TTITLE8=You Take Me Away
TTITLE9=Skid Row
EXTD=YEAR: 1991
EXTT0=
EXTT1=
EXTT2=
EXTT3=
EXTT4=
EXTT5=
EXTT6=
EXTT7=
EXTT8=
EXTT9=
PLAYORDER=
